# xmcd
#
# Track frame offsets:
# 150
# 15186
# 30990
# 46422
# 61534
# 76819
# 88011
# 103748
# 121495
# 135865
#
# Disc length: 1989 seconds
#
#
# Revision: 0
# Processed by: cddbd v1.4PL0 Copyright (c) Steve Scherf et al.
# Submitted via: FreeRIP 2.51 
#
DISCID=6507c30a
DTITLE=лекима йама - жеццеи аккиытийа
DYEAR=1900
DGENRE=Ballad
TTITLE0=аямгсг
TTITLE1=поиам ацапг
TTITLE2=пяыто жики
TTITLE3=аятелида
TTITLE4=лиа лийяоука стицлг
TTITLE5=ам дем се ды
TTITLE6=ьувг цежуяи
TTITLE7=тгс ацапгс то ботами
TTITLE8=ле дуо еувес
TTITLE9=жеццеи аккиытийа
EXTD=
EXTT0=
EXTT1=
EXTT2=
EXTT3=
EXTT4=
EXTT5=
EXTT6=
EXTT7=
EXTT8=
EXTT9=
PLAYORDER=
